<svg xmlns="http://www.w3.org/2000/svg" xmlns:xlink="http://www.w3.org/1999/xlink" viewBox="0 0 610.93 494.22"><defs><style>.cls-1{fill:none;}.cls-2{clip-path:url(#clip-path);}.cls-3{fill:#1d1e1b;}.cls-4{fill:#e20a17;}</style><clipPath id="clip-path" transform="translate(0 0)"><rect class="cls-1" width="610.93" height="494.21"/></clipPath></defs><title>logo</title><g id="Слой_2" data-name="Слой 2"><g id="Слой_1-2" data-name="Слой 1"><g id="Logo_JAG" data-name="Logo JAG"><g class="cls-2"><g class="cls-2"><path class="cls-3" d="M128.09,312.84q-.09,21.68-21.77,21.77H21.77Q.1,334.52,0,312.84V241.78H41v57.57h46V59.72h41Z" transform="translate(0 0)"/><path class="cls-3" d="M258.33,299.35H201.85V95h56.48Zm41,13.49V81.49q-.09-21.67-21.77-21.77h-95q-21.69.09-21.77,21.77V312.84q.09,21.68,21.77,21.77h95q21.69-.09,21.77-21.77" transform="translate(0 0)"/><path class="cls-3" d="M464.14,312.84q0,21.68-21.77,21.77H353.5q-21.76-.09-21.77-21.77V244.3h41v55.77h50.37v-54l-82.45-78c-5.94-5.75-8.94-13.07-8.94-22V81.49q0-21.67,21.77-21.77h88.87q21.76.09,21.77,21.41v64.94h-41V94.26H372.75V144.1l82.45,77.65c5.94,5.64,8.94,13.08,8.94,22.31Z" transform="translate(0 0)"/><polygon class="cls-3" points="610.93 334.61 496.88 334.61 496.88 59.72 609.85 59.72 609.85 96.07 537.9 96.07 537.9 176.3 600.14 176.3 600.14 211.92 537.9 211.92 537.9 298.27 610.93 298.27 610.93 334.61"/><polygon class="cls-4" points="602.66 1.56 551.57 47.85 522.06 47.85 522.06 46.47 552.28 0 602.66 0 602.66 1.56"/><path class="cls-3" d="M583.65,450.68c-.79-11.92-1.7-23.72-3-33.69-1-10.49-3-15.34-6.68-15.34-4.72,0-11.28,7.48-15.47,14l2.22,3c3.28-4.59,6.56-7.61,7.61-7.61s1.84,1.58,2.76,8.13c1.83,11.93,3.93,32.38,4.06,42.74a123.69,123.69,0,0,1-30.81,29.37l1,2.89L559,490.68c7.34-8.13,15.87-19.67,23.59-30.82,7-9.83,18.11-27.14,23.74-37.1,3.28-5.77,4.72-10.23,4.58-13.89,0-4.33-2.22-7.22-5.1-7.22a6.49,6.49,0,0,0-5.5,3.54,4.1,4.1,0,0,0-.26,3.28,14.76,14.76,0,0,1,1.44,6.16c.13,9.57-11.94,27.4-17.59,36.05ZM524,423.42l1.31-6.56c2-9.17,1.83-15.21-1.44-15.21-3.54,0-11.66,5.38-18.35,12.85l1.71,3c3.93-3.68,8.13-6.3,9.31-6.3s1.05,1.31.26,5.64c-2.49,14-6.16,30.15-9.57,44.18l1,1a48.27,48.27,0,0,1,9.32-2.36c1.57-8.65,3.14-16.91,5.23-25.7,2.36-5.91,6.42-12.07,9.31-16.26s5.11-5.51,6.68-5.51a6.05,6.05,0,0,1,4.46,2.23c.66.65,1.71.65,2.89-.13a13.75,13.75,0,0,0,3.4-3.8,5.72,5.72,0,0,0,.14-5.63,7.1,7.1,0,0,0-5.64-3.28c-5.25,0-13,8.92-19.67,21.77ZM478.76,407c3.8,0,6.56,2.63,6.56,7.22,0,6-5.51,12.07-24.28,17,2.23-14.69,8.8-20.72,12.34-22.69a10.71,10.71,0,0,1,5.38-1.58m10.88,37.26c-6.55,6.42-13.64,10.1-19.15,10.1-8,0-10.24-7.74-10.24-14.82a23.29,23.29,0,0,1,.27-4.2c12.59-3.15,34.62-10.24,34.62-23.22,0-5.64-4.58-10.48-11.53-10.48-5.51,0-12.46,3-18.1,7.33-10.36,7.87-15.73,21.64-15.73,34,0,15.6,8.38,19.13,14.41,19.13,6.3,0,16.14-2.49,27.67-14.8Zm-52.19.91c-3.67,3.8-9.05,7.21-10.5,7.21-.78,0-1.31-.79-.53-4.59,5.53-26,10.9-51.39,16.27-76.7.52-2.76.39-3.94-.79-3.94-1.7,0-9.17,3.42-19.4,4.6L422,374.9l3.54.12c6.05,0,6.83.91,5.52,6.68q-6.7,32.26-13.64,64.52c-2.75,12.85-.66,15.87,1.83,15.87,4.06,0,13.38-5.9,20.19-14Zm-34.62,0c-3.67,3.8-9.05,7.21-10.5,7.21-.79,0-1.31-.79-.52-4.59,5.52-26,10.89-51.39,16.25-76.7.53-2.76.4-3.94-.78-3.94-1.7,0-9.17,3.42-19.4,4.6l-.53,3.14,3.54.12c6,0,6.83.91,5.52,6.68q-6.71,32.26-13.64,64.52c-2.75,12.85-.65,15.87,1.83,15.87,4.06,0,13.38-5.9,20.19-14Zm-74.1,8.53c-1.83,0-3.54-2.75-3.54-8.66,0-13,5.25-28.46,14.17-35a16.28,16.28,0,0,1,9.32-2.75,21.9,21.9,0,0,1,8.77,1.83c-.92,4.2-2.88,13.65-4.32,18.89-4.45,9.05-19.28,25.71-24.4,25.71m39.86-8.41c-3.8,3.81-8.39,6.82-9.44,6.82-.79,0-1.18-1.05-.26-5.64,3-16.57,6.95-34.35,9.05-42.47l-.39-.52a46.24,46.24,0,0,1-5-.92,43.18,43.18,0,0,0-8.12-.92c-8.25,0-17.83,4.58-24.4,10.09-9.57,8-15.72,22.29-15.72,35.53,0,10.49,4.19,14.82,7.59,14.82s7.87-2.36,12.2-5.9A94.26,94.26,0,0,0,351,438.09h.25l-2.61,12.46c-1.84,9.57-.14,11.54,2.36,11.54,3.27,0,12-4.85,19.13-13.64ZM302.5,398c.53-9.05,1.18-16.52,1.58-20.45a68.12,68.12,0,0,0-23.2-4.2c-32.53,0-55.34,21.63-55.34,51.65,0,24,16.12,37.5,38.81,37.5,10.49,0,19.55-3,27.81-4.83a32.43,32.43,0,0,1,.65-10.37l2.1-10.89c1.83-9.71,2.36-10.23,9.69-11.41l.79-3.26h-32l-.78,3.39c13,1.18,13.51,1.7,11.54,11.28l-2.49,12.34c-1.44,6.82-6.82,9.18-15,9.18-18.49,0-28.46-14.3-28.46-33.84,0-24.39,15.21-46.17,39.48-46.17,13.64,0,21,5.51,21,20.33Zm-117,6H170.32l4.59-19.8-1.18-.78-10,8.13-3,12.45H152.9l-3.28,3.94.4,1.18h9.69L152,444.78c-2.88,13.51-.26,17.31,2.75,17.31,6.94,0,16.77-8.79,21.1-14L174,445.32c-3.15,3.28-9.58,7.61-11.81,7.61-1.44,0-2.1-1.44-.78-7.87l7.73-35.93,13-.66ZM113,423.42l1.3-6.56c2-9.17,1.84-15.21-1.43-15.21-3.54,0-11.67,5.38-18.35,12.85l1.7,3c3.94-3.68,8.13-6.3,9.31-6.3s1,1.31.27,5.64c-2.5,14-6.17,30.15-9.58,44.18l1,1a48.17,48.17,0,0,1,9.31-2.36c1.57-8.65,3.14-16.91,5.24-25.7,2.35-5.91,6.42-12.07,9.3-16.26s5.11-5.51,6.69-5.51a6.09,6.09,0,0,1,4.46,2.23c.65.65,1.7.65,2.88-.13a13.93,13.93,0,0,0,3.41-3.8,5.74,5.74,0,0,0,.13-5.63,7.09,7.09,0,0,0-5.63-3.28c-5.25,0-13,8.92-19.67,21.77Zm-55.47.66H33.83c5.64-11.15,11.66-21.9,18.22-34h.27ZM83.78,457c-9.31-.92-10.23-2.1-11.8-11.41-2.88-15.62-5.77-32-8.39-48.91l-3.67-23.21-4.07,1.05L16.39,444.4C10.23,455.29,8.92,455.94.92,457L0,460.51H28.19L29,457c-10.1-.79-11-1.7-7.22-9.57,2.89-6,7-13.65,9.18-17.85h27.4c1.31,7.61,2.37,13.91,3.28,19.42s.26,7.08-8.78,8l-.92,3.52H82.86Z" transform="translate(0 0)"/></g></g></g></g></g></svg>